<svg width="46" height="20" viewBox="0 0 46 20" fill="none" xmlns="http://www.w3.org/2000/svg">
<path d="M29.984 15V12.886H25.476V11.584L29.802 5.34H31.58V11.5H32.728V12.886H31.58V15H29.984ZM27.086 11.5H29.984V7.342L27.086 11.5ZM35.0632 15.056C34.8672 15.056 34.6898 15.0093 34.5312 14.916C34.3725 14.8227 34.2418 14.6967 34.1392 14.538C34.0458 14.37 33.9992 14.188 33.9992 13.992C33.9992 13.796 34.0458 13.6187 34.1392 13.46C34.2418 13.292 34.3725 13.1613 34.5312 13.068C34.6898 12.9747 34.8672 12.928 35.0632 12.928C35.2592 12.928 35.4365 12.9747 35.5952 13.068C35.7538 13.1613 35.8798 13.292 35.9732 13.46C36.0758 13.6187 36.1272 13.796 36.1272 13.992C36.1272 14.188 36.0758 14.37 35.9732 14.538C35.8798 14.6967 35.7538 14.8227 35.5952 14.916C35.4365 15.0093 35.2592 15.056 35.0632 15.056ZM40.0192 15.21C39.1325 15.21 38.3578 14.9953 37.6952 14.566L38.1852 13.222C38.4185 13.3713 38.6845 13.4927 38.9832 13.586C39.2912 13.67 39.6225 13.712 39.9772 13.712C40.4905 13.712 40.9478 13.6047 41.3492 13.39C41.7505 13.166 42.0772 12.8067 42.3292 12.312C42.5812 11.808 42.7352 11.1407 42.7912 10.31C42.5578 10.6927 42.2358 10.996 41.8252 11.22C41.4238 11.4347 40.9525 11.542 40.4112 11.542C39.9538 11.542 39.5292 11.4627 39.1372 11.304C38.7545 11.1453 38.4185 10.926 38.1292 10.646C37.8398 10.3567 37.6158 10.0253 37.4572 9.652C37.2985 9.26933 37.2192 8.85867 37.2192 8.42C37.2192 7.95333 37.3032 7.524 37.4712 7.132C37.6485 6.73067 37.8912 6.38067 38.1992 6.082C38.5165 5.78333 38.8805 5.55 39.2912 5.382C39.7112 5.214 40.1685 5.13 40.6632 5.13C41.2232 5.13 41.7318 5.242 42.1892 5.466C42.6465 5.68067 43.0385 5.998 43.3652 6.418C43.7012 6.82867 43.9578 7.33267 44.1352 7.93C44.3125 8.52733 44.4012 9.204 44.4012 9.96C44.4012 10.7907 44.2938 11.5327 44.0792 12.186C43.8738 12.8393 43.5752 13.39 43.1832 13.838C42.7912 14.286 42.3245 14.6267 41.7832 14.86C41.2512 15.0933 40.6632 15.21 40.0192 15.21ZM40.6492 10.17C40.9945 10.17 41.3025 10.0953 41.5732 9.946C41.8438 9.78733 42.0538 9.57733 42.2032 9.316C42.3618 9.05467 42.4412 8.75133 42.4412 8.406C42.4412 8.06067 42.3618 7.748 42.2032 7.468C42.0445 7.188 41.8298 6.96867 41.5592 6.81C41.2978 6.642 40.9992 6.558 40.6632 6.558C40.3272 6.558 40.0238 6.642 39.7532 6.81C39.4825 6.96867 39.2678 7.188 39.1092 7.468C38.9505 7.73867 38.8712 8.04667 38.8712 8.392C38.8712 8.73733 38.9458 9.04533 39.0952 9.316C39.2538 9.57733 39.4685 9.78733 39.7392 9.946C40.0098 10.0953 40.3132 10.17 40.6492 10.17Z" fill="#060640"/>
<path d="M12.825 4.34169L14 6.69169C14.1583 7.01669 14.5833 7.32503 14.9417 7.39169L17.0667 7.74169C18.425 7.96669 18.7417 8.95003 17.7667 9.93336L16.1083 11.5917C15.8333 11.8667 15.675 12.4084 15.7667 12.8L16.2417 14.85C16.6167 16.4667 15.75 17.1 14.325 16.25L12.3333 15.0667C11.975 14.85 11.375 14.85 11.0167 15.0667L9.025 16.25C7.6 17.0917 6.73334 16.4667 7.10834 14.85L7.58334 12.8C7.65834 12.4 7.5 11.8584 7.225 11.5834L5.56667 9.92503C4.59167 8.95003 4.90834 7.96669 6.26667 7.73336L8.39167 7.38336C8.75 7.32503 9.175 7.00836 9.33334 6.68336L10.5083 4.33336C11.15 3.06669 12.1833 3.06669 12.825 4.34169Z" fill="#FFBF00"/>
<path d="M6.66667 4.79163H1.66667C1.32501 4.79163 1.04167 4.50829 1.04167 4.16663C1.04167 3.82496 1.32501 3.54163 1.66667 3.54163H6.66667C7.00834 3.54163 7.29167 3.82496 7.29167 4.16663C7.29167 4.50829 7.00834 4.79163 6.66667 4.79163Z" fill="#FFBF00"/>
<path d="M4.16667 16.4584H1.66667C1.32501 16.4584 1.04167 16.175 1.04167 15.8334C1.04167 15.4917 1.32501 15.2084 1.66667 15.2084H4.16667C4.50834 15.2084 4.79167 15.4917 4.79167 15.8334C4.79167 16.175 4.50834 16.4584 4.16667 16.4584Z" fill="#FFBF00"/>
<path d="M2.50001 10.625H1.66667C1.32501 10.625 1.04167 10.3417 1.04167 10C1.04167 9.65833 1.32501 9.375 1.66667 9.375H2.50001C2.84167 9.375 3.12501 9.65833 3.12501 10C3.12501 10.3417 2.84167 10.625 2.50001 10.625Z" fill="#FFBF00"/>
</svg>
